<?xml version="1.0" encoding="iso-8859-1"?>
<!-- Generator: Adobe Illustrator 19.0.0, SVG Export Plug-In . SVG Version: 6.00 Build 0)  -->
<svg version="1.1" id="Capa_1" xmlns="http://www.w3.org/2000/svg" xmlns:xlink="http://www.w3.org/1999/xlink" x="0px" y="0px"
	 viewBox="0 0 479.998 479.998" style="enable-background:new 0 0 479.998 479.998;" xml:space="preserve">
<linearGradient id="SVGID_1_" gradientUnits="userSpaceOnUse" x1="-26.8752" y1="615.8755" x2="-26.8752" y2="556.5636" gradientTransform="matrix(8 0 0 -8 455.0001 4940.627)">
	<stop  offset="0" style="stop-color:#FFF33B"/>
	<stop  offset="0.04" style="stop-color:#FEE72E"/>
	<stop  offset="0.117" style="stop-color:#FED51B"/>
	<stop  offset="0.196" style="stop-color:#FDCA10"/>
	<stop  offset="0.281" style="stop-color:#FDC70C"/>
	<stop  offset="0.669" style="stop-color:#F3903F"/>
	<stop  offset="0.888" style="stop-color:#ED683C"/>
	<stop  offset="1" style="stop-color:#E93E3A"/>
</linearGradient>
<path style="fill:url(#SVGID_1_);" d="M478.4,195.159c-1.511-2.014-3.882-3.2-6.4-3.2h-48v-40c0-4.418-3.582-8-8-8h-32
	C383.956,64.43,319.449-0.005,239.92,0.039c-60.964,0.034-115.3,38.454-135.656,95.919H8c-4.418,0-8,3.582-8,8v368
	c0.036,0.288,0.09,0.574,0.16,0.856c0.04,0.367,0.104,0.73,0.192,1.088c0.208,0.809,0.546,1.579,1,2.28
	c0.112,0.176,0.112,0.4,0.24,0.568s0.136,0.088,0.184,0.152c0.685,0.879,1.549,1.602,2.536,2.12c0.2,0.104,0.424,0.128,0.632,0.216
	c0.607,0.295,1.25,0.51,1.912,0.64c0.379,0.054,0.761,0.081,1.144,0.08h384c3.548-0.001,6.671-2.34,7.672-5.744l80-272
	C480.385,199.794,479.913,197.178,478.4,195.159L478.4,195.159z M408,159.959v32h-32.224c0.072-0.2,0.128-0.408,0.2-0.616
	c0.16-0.456,0.296-0.928,0.448-1.392c1.136-3.349,2.141-6.736,3.016-10.16c0.192-0.744,0.4-1.472,0.576-2.216
	c0.88-3.68,1.613-7.392,2.2-11.136c0.128-0.8,0.224-1.6,0.336-2.4c0.192-1.368,0.416-2.728,0.568-4.104L408,159.959z M240,15.959
	c70.658,0.084,127.916,57.342,128,128c0,2.48-0.072,5.024-0.232,7.552c-0.208,3.704-0.6,7.384-1.128,11.032
	c-0.176,1.208-0.448,2.4-0.656,3.608c-0.432,2.4-0.872,4.856-1.44,7.256c-0.336,1.408-0.744,2.8-1.128,4.192
	c-0.592,2.168-1.208,4.328-1.92,6.472c-0.48,1.456-1.024,2.904-1.6,4.344c-0.448,1.192-0.944,2.4-1.424,3.544h-48.8
	c0.064-0.216,0.08-0.44,0.144-0.656c0.48-1.672,0.8-3.384,1.128-5.104c0.152-0.8,0.376-1.6,0.496-2.456
	c0.364-2.579,0.551-5.18,0.56-7.784c-0.006-12.237-4.034-24.133-11.464-33.856c-0.48-0.632-1.016-1.192-1.52-1.8
	c-0.992-1.192-1.984-2.4-3.064-3.48c-0.64-0.656-1.336-1.248-2.008-1.872c-1.024-0.952-2.064-1.888-3.152-2.76
	c-0.8-0.608-1.56-1.16-2.352-1.728c-0.656-0.464-1.272-0.992-1.944-1.432c2.085-1.423,4.04-3.03,5.84-4.8
	c15.614-15.628,15.603-40.954-0.025-56.569c-7.51-7.504-17.695-11.714-28.311-11.703h-8v-16c0-4.418-3.582-8-8-8s-8,3.582-8,8v16
	h-16v-16c0-4.418-3.582-8-8-8s-8,3.582-8,8v16h-32c-4.418,0-8,3.582-8,8s3.582,8,8,8h16v120h-70.48
	c-0.616-1.512-1.232-3.032-1.792-4.56c-0.616-1.696-1.248-3.384-1.792-5.096c-0.8-2.48-1.424-5-2.056-7.528
	c-0.408-1.656-0.872-3.296-1.216-4.968c-0.576-2.808-0.976-5.664-1.368-8.528c-0.192-1.424-0.472-2.824-0.616-4.256
	c-0.432-4.312-0.68-8.664-0.68-13.064c0-3.2,0.117-6.4,0.352-9.6C117.167,67.476,172.944,15.739,240,15.959L240,15.959z M264,71.959
	c13.255,0,24,10.745,24,24s-10.745,24-24,24h-56v-48H264z M208,135.959h48c14.302,0.018,27.507,7.671,34.632,20.072
	c3.563,6.033,5.418,12.922,5.368,19.928c-0.023,2.474-0.272,4.94-0.744,7.368c-0.104,0.536-0.2,1.064-0.32,1.6
	c-0.513,2.322-1.245,4.591-2.184,6.776c-0.04,0.088-0.096,0.176-0.136,0.272H208L208,135.959z M99.536,111.959v0.072
	c-1.04,4.616-1.76,9.304-2.344,14.016c-0.144,1.192-0.28,2.4-0.392,3.584c-0.48,4.728-0.8,9.528-0.8,14.328
	s0.288,9.416,0.736,14.064c0.144,1.456,0.368,2.888,0.552,4.336c0.408,3.2,0.912,6.448,1.544,9.6c0.315,1.6,0.656,3.181,1.024,4.744
	c0.736,3.16,1.6,6.288,2.56,9.392c0.424,1.384,0.8,2.776,1.28,4.144c0.192,0.56,0.32,1.136,0.52,1.688H88
	c-3.548,0.001-6.671,2.34-7.672,5.744L16,416.407V111.959H99.536z M386.016,463.959H18.696l75.288-256h367.328L386.016,463.959z"/>
<g>
</g>
<g>
</g>
<g>
</g>
<g>
</g>
<g>
</g>
<g>
</g>
<g>
</g>
<g>
</g>
<g>
</g>
<g>
</g>
<g>
</g>
<g>
</g>
<g>
</g>
<g>
</g>
<g>
</g>
</svg>
