<svg height="512pt" viewBox="0 0 512 512" width="512pt" xmlns="http://www.w3.org/2000/svg" xmlns:xlink="http://www.w3.org/1999/xlink"><linearGradient id="a" gradientUnits="userSpaceOnUse" x1="256" x2="256" y1="0" y2="512"><stop offset="0" stop-color="#2af598"/><stop offset="1" stop-color="#009efd"/></linearGradient><path d="m437.019531 74.980469c-48.351562-48.351563-112.640625-74.980469-181.019531-74.980469s-132.667969 26.628906-181.019531 74.980469c-48.351563 48.351562-74.980469 112.640625-74.980469 181.019531s26.628906 132.667969 74.980469 181.019531c48.351562 48.351563 112.640625 74.980469 181.019531 74.980469s132.667969-26.628906 181.019531-74.980469c48.351563-48.351562 74.980469-112.640625 74.980469-181.019531s-26.628906-132.667969-74.980469-181.019531zm-181.019531 397.019531c-119.101562 0-216-96.898438-216-216s96.898438-216 216-216 216 96.898438 216 216-96.898438 216-216 216zm85.929688-234.941406c6.460937-10.5 10.199218-22.851563 10.199218-36.058594 0-32.941406-23.207031-60.546875-54.128906-67.367188v-42.632812h-40v41h-31v-41h-40v41h-39.871094v40h39.871094v170h-40v40h40v40h40v-40h31v40h40v-40h12c41.90625 0 76-34.09375 76-76 0-30.507812-18.074219-56.855469-44.070312-68.941406zm-58.800782-65.058594c15.988282 0 29 13.007812 29 29s-13.011718 29-29 29h-56.128906v-58zm26.871094 170h-83v-72h83c19.851562 0 36 16.148438 36 36s-16.148438 36-36 36zm0 0" fill="url(#a)"/></svg>