<svg xmlns="http://www.w3.org/2000/svg" height="512.00003pt" version="1.1" viewBox="0 0 512.00003 512.00003" width="512.00003pt">
<g id="surface1">
<path d="M 17.066406 494.933594 L 17.066406 0 L 0 0 L 0 512 L 512 512 L 512 494.933594 Z M 17.066406 494.933594 " style=" stroke:none;fill-rule:nonzero;fill:rgb(47.058824%,46.27451%,50.196078%);fill-opacity:1;" />
<path d="M 59.734375 307.199219 L 59.734375 332.800781 L 42.667969 332.800781 L 42.667969 418.132812 L 59.734375 418.132812 L 59.734375 443.734375 L 68.265625 443.734375 L 68.265625 307.199219 Z M 59.734375 307.199219 " style=" stroke:none;fill-rule:nonzero;fill:rgb(100%,31.372549%,13.72549%);fill-opacity:1;" />
<path d="M 76.800781 307.199219 L 68.265625 307.199219 L 68.265625 443.734375 L 76.800781 443.734375 L 76.800781 418.132812 L 93.867188 418.132812 L 93.867188 332.800781 L 76.800781 332.800781 Z M 76.800781 307.199219 " style=" stroke:none;fill-rule:nonzero;fill:rgb(100%,38.431373%,26.27451%);fill-opacity:1;" />
<path d="M 136.535156 204.800781 L 136.535156 230.402344 L 119.46875 230.402344 L 119.46875 349.867188 L 136.535156 349.867188 L 136.535156 375.46875 L 145.066406 375.46875 L 145.066406 204.800781 Z M 136.535156 204.800781 " style=" stroke:none;fill-rule:nonzero;fill:rgb(36.862745%,67.45098%,14.117647%);fill-opacity:1;" />
<path d="M 153.601562 204.800781 L 145.066406 204.800781 L 145.066406 375.46875 L 153.601562 375.46875 L 153.601562 349.867188 L 170.667969 349.867188 L 170.667969 230.402344 L 153.601562 230.402344 Z M 153.601562 204.800781 " style=" stroke:none;fill-rule:nonzero;fill:rgb(49.411765%,83.921569%,24.313725%);fill-opacity:1;" />
<path d="M 384 221.867188 L 375.46875 221.867188 L 375.46875 392.535156 L 384 392.535156 L 384 366.933594 L 401.066406 366.933594 L 401.066406 247.46875 L 384 247.46875 Z M 384 221.867188 " style=" stroke:none;fill-rule:nonzero;fill:rgb(100%,38.431373%,26.27451%);fill-opacity:1;" />
<path d="M 366.933594 221.867188 L 366.933594 247.46875 L 349.867188 247.46875 L 349.867188 366.933594 L 366.933594 366.933594 L 366.933594 392.535156 L 375.46875 392.535156 L 375.46875 221.867188 Z M 366.933594 221.867188 " style=" stroke:none;fill-rule:nonzero;fill:rgb(100%,31.372549%,13.72549%);fill-opacity:1;" />
<path d="M 443.734375 119.46875 L 443.734375 145.066406 L 426.667969 145.066406 L 426.667969 264.535156 L 443.734375 264.535156 L 443.734375 290.132812 L 452.265625 290.132812 L 452.265625 119.46875 Z M 443.734375 119.46875 " style=" stroke:none;fill-rule:nonzero;fill:rgb(36.862745%,67.45098%,14.117647%);fill-opacity:1;" />
<path d="M 460.800781 145.066406 L 460.800781 119.46875 L 452.265625 119.46875 L 452.265625 290.132812 L 460.800781 290.132812 L 460.800781 264.535156 L 477.867188 264.535156 L 477.867188 145.066406 Z M 460.800781 145.066406 " style=" stroke:none;fill-rule:nonzero;fill:rgb(49.411765%,83.921569%,24.313725%);fill-opacity:1;" />
<path d="M 307.199219 170.667969 L 298.667969 170.667969 L 298.667969 307.199219 L 307.199219 307.199219 L 307.199219 281.601562 L 324.265625 281.601562 L 324.265625 196.265625 L 307.199219 196.265625 Z M 307.199219 170.667969 " style=" stroke:none;fill-rule:nonzero;fill:rgb(100%,38.431373%,26.27451%);fill-opacity:1;" />
<path d="M 290.132812 170.667969 L 290.132812 196.265625 L 273.066406 196.265625 L 273.066406 281.601562 L 290.132812 281.601562 L 290.132812 307.199219 L 298.667969 307.199219 L 298.667969 170.667969 Z M 290.132812 170.667969 " style=" stroke:none;fill-rule:nonzero;fill:rgb(100%,31.372549%,13.72549%);fill-opacity:1;" />
<path d="M 230.402344 51.199219 L 221.867188 51.199219 L 221.867188 273.066406 L 230.402344 273.066406 L 230.402344 247.46875 L 247.46875 247.46875 L 247.46875 76.800781 L 230.402344 76.800781 Z M 230.402344 51.199219 " style=" stroke:none;fill-rule:nonzero;fill:rgb(36.862745%,67.45098%,14.117647%);fill-opacity:1;" />
<path d="M 213.332031 51.199219 L 213.332031 76.800781 L 196.265625 76.800781 L 196.265625 247.46875 L 213.332031 247.46875 L 213.332031 273.066406 L 221.867188 273.066406 L 221.867188 51.199219 Z M 213.332031 51.199219 " style=" stroke:none;fill-rule:nonzero;fill:rgb(30.588235%,56.470588%,11.764706%);fill-opacity:1;" />
</g>
</svg>