<?xml version="1.0" encoding="iso-8859-1"?>
<!-- Generator: Adobe Illustrator 19.0.0, SVG Export Plug-In . SVG Version: 6.00 Build 0)  -->
<svg version="1.1" id="Capa_1" xmlns="http://www.w3.org/2000/svg" xmlns:xlink="http://www.w3.org/1999/xlink" x="0px" y="0px"
	 viewBox="0 0 480.192 480.192" style="enable-background:new 0 0 480.192 480.192;" xml:space="preserve">
<g>
	
		<linearGradient id="SVGID_1_" gradientUnits="userSpaceOnUse" x1="-40.875" y1="617.0662" x2="-40.875" y2="556.5462" gradientTransform="matrix(8 0 0 -8 455 4942.7207)">
		<stop  offset="0" style="stop-color:#FFF33B"/>
		<stop  offset="0.04" style="stop-color:#FEE72E"/>
		<stop  offset="0.117" style="stop-color:#FED51B"/>
		<stop  offset="0.196" style="stop-color:#FDCA10"/>
		<stop  offset="0.281" style="stop-color:#FDC70C"/>
		<stop  offset="0.669" style="stop-color:#F3903F"/>
		<stop  offset="0.888" style="stop-color:#ED683C"/>
		<stop  offset="1" style="stop-color:#E93E3A"/>
	</linearGradient>
	<path style="fill:url(#SVGID_1_);" d="M128,312.191c-35.346,0-64-28.654-64-64s28.654-64,64-64s64,28.654,64,64
		C191.96,283.521,163.33,312.151,128,312.191z M128,200.191c-26.51,0-48,21.49-48,48s21.49,48,48,48s48-21.49,48-48
		C175.974,221.692,154.499,200.218,128,200.191z"/>
	
		<linearGradient id="SVGID_2_" gradientUnits="userSpaceOnUse" x1="-40.875" y1="617.0662" x2="-40.875" y2="556.5462" gradientTransform="matrix(8 0 0 -8 455 4942.7207)">
		<stop  offset="0" style="stop-color:#FFF33B"/>
		<stop  offset="0.04" style="stop-color:#FEE72E"/>
		<stop  offset="0.117" style="stop-color:#FED51B"/>
		<stop  offset="0.196" style="stop-color:#FDCA10"/>
		<stop  offset="0.281" style="stop-color:#FDC70C"/>
		<stop  offset="0.669" style="stop-color:#F3903F"/>
		<stop  offset="0.888" style="stop-color:#ED683C"/>
		<stop  offset="1" style="stop-color:#E93E3A"/>
	</linearGradient>
	<path style="fill:url(#SVGID_2_);" d="M248,480.191H8c-4.418,0-8-3.582-8-8v-40c0.066-57.41,46.59-103.934,104-104h48
		c57.41,0.066,103.934,46.59,104,104v40C256,476.609,252.418,480.191,248,480.191z M16,464.191h224v-32
		c-0.057-48.577-39.423-87.943-88-88h-48c-48.577,0.057-87.943,39.423-88,88V464.191z"/>
</g>
<g>
	
		<linearGradient id="SVGID_3_" gradientUnits="userSpaceOnUse" x1="-12.863" y1="617.0662" x2="-12.863" y2="556.5462" gradientTransform="matrix(8 0 0 -8 455 4942.7207)">
		<stop  offset="0" style="stop-color:#FFF33B"/>
		<stop  offset="0.04" style="stop-color:#FEE72E"/>
		<stop  offset="0.117" style="stop-color:#FED51B"/>
		<stop  offset="0.196" style="stop-color:#FDCA10"/>
		<stop  offset="0.281" style="stop-color:#FDC70C"/>
		<stop  offset="0.669" style="stop-color:#F3903F"/>
		<stop  offset="0.888" style="stop-color:#ED683C"/>
		<stop  offset="1" style="stop-color:#E93E3A"/>
	</linearGradient>
	<path style="fill:url(#SVGID_3_);" d="M232,264.191c-4.418,0-8-3.581-8.001-7.999c0-1.058,0.21-2.105,0.617-3.081l21.888-52.448
		c-14.722-21.295-22.575-46.584-22.504-72.472C223.948,57.446,281.256,0.053,352.002,0.001s128.138,57.256,128.19,128.002
		c0.052,70.745-57.256,128.138-128.002,128.19c-21.482,0.016-42.623-5.371-61.478-15.666l-55.648,23.056
		C234.092,263.984,233.051,264.191,232,264.191L232,264.191z M352,16.191c-61.828,0.066-111.934,50.172-112,112
		c-0.067,24.022,7.661,47.417,22.024,66.672c1.681,2.264,2.045,5.246,0.96,7.848l-16.136,38.664l41.368-17.136
		c2.333-0.965,4.984-0.772,7.152,0.52c17.147,10.14,36.711,15.471,56.632,15.432c61.856,0,112-50.144,112-112
		S413.856,16.191,352,16.191L352,16.191z"/>
	
		<linearGradient id="SVGID_4_" gradientUnits="userSpaceOnUse" x1="-12.376" y1="617.0662" x2="-12.376" y2="556.5462" gradientTransform="matrix(8 0 0 -8 455 4942.7207)">
		<stop  offset="0" style="stop-color:#FFF33B"/>
		<stop  offset="0.04" style="stop-color:#FEE72E"/>
		<stop  offset="0.117" style="stop-color:#FED51B"/>
		<stop  offset="0.196" style="stop-color:#FDCA10"/>
		<stop  offset="0.281" style="stop-color:#FDC70C"/>
		<stop  offset="0.669" style="stop-color:#F3903F"/>
		<stop  offset="0.888" style="stop-color:#ED683C"/>
		<stop  offset="1" style="stop-color:#E93E3A"/>
	</linearGradient>
	<path style="fill:url(#SVGID_4_);" d="M389.704,122.767c14.761-16.305,13.509-41.489-2.796-56.25
		c-5.328-4.823-11.861-8.115-18.908-9.526v-16.8c0-4.418-3.582-8-8-8s-8,3.582-8,8v16h-8v-16c0-4.418-3.582-8-8-8s-8,3.582-8,8v16
		h-24c-4.418,0-8,3.582-8,8s3.582,8,8,8h16v112h-16c-4.418,0-8,3.582-8,8s3.582,8,8,8h24v16c0,4.418,3.582,8,8,8s8-3.582,8-8v-16h8
		v16c0,4.418,3.582,8,8,8s8-3.582,8-8v-16h8c22.043,0.04,39.944-17.796,39.985-39.839
		C416.015,143.539,405.506,128.509,389.704,122.767L389.704,122.767z M384,96.191c0.027,13.228-10.676,23.973-23.904,24
		c-0.032,0-0.064,0-0.096,0h-24v-48h24C373.255,72.191,384,82.936,384,96.191z M376,184.191h-40v-48h40c13.255,0,24,10.745,24,24
		S389.255,184.191,376,184.191z"/>
</g>
<g>
</g>
<g>
</g>
<g>
</g>
<g>
</g>
<g>
</g>
<g>
</g>
<g>
</g>
<g>
</g>
<g>
</g>
<g>
</g>
<g>
</g>
<g>
</g>
<g>
</g>
<g>
</g>
<g>
</g>
</svg>
