<?xml version="1.0" encoding="iso-8859-1"?>
<!-- Generator: Adobe Illustrator 19.0.0, SVG Export Plug-In . SVG Version: 6.00 Build 0)  -->
<svg version="1.1" id="Capa_1" xmlns="http://www.w3.org/2000/svg" xmlns:xlink="http://www.w3.org/1999/xlink" x="0px" y="0px"
	 viewBox="0 0 480 480" style="enable-background:new 0 0 480 480;" xml:space="preserve">
<linearGradient id="SVGID_1_" gradientUnits="userSpaceOnUse" x1="-18.875" y1="617.029" x2="-18.875" y2="556.776" gradientTransform="matrix(8 0 0 -8 455 4941)">
	<stop  offset="0" style="stop-color:#FFF33B"/>
	<stop  offset="0.04" style="stop-color:#FEE72E"/>
	<stop  offset="0.117" style="stop-color:#FED51B"/>
	<stop  offset="0.196" style="stop-color:#FDCA10"/>
	<stop  offset="0.281" style="stop-color:#FDC70C"/>
	<stop  offset="0.669" style="stop-color:#F3903F"/>
	<stop  offset="0.888" style="stop-color:#ED683C"/>
	<stop  offset="1" style="stop-color:#E93E3A"/>
</linearGradient>
<path style="fill:url(#SVGID_1_);" d="M352,480h-96V240h96V480z M272,464h64V256h-64V464z"/>
<g>
	
		<linearGradient id="SVGID_2_" gradientUnits="userSpaceOnUse" x1="-2.875" y1="617.029" x2="-2.875" y2="556.776" gradientTransform="matrix(8 0 0 -8 455 4941)">
		<stop  offset="0" style="stop-color:#FFF33B"/>
		<stop  offset="0.04" style="stop-color:#FEE72E"/>
		<stop  offset="0.117" style="stop-color:#FED51B"/>
		<stop  offset="0.196" style="stop-color:#FDCA10"/>
		<stop  offset="0.281" style="stop-color:#FDC70C"/>
		<stop  offset="0.669" style="stop-color:#F3903F"/>
		<stop  offset="0.888" style="stop-color:#ED683C"/>
		<stop  offset="1" style="stop-color:#E93E3A"/>
	</linearGradient>
	<path style="fill:url(#SVGID_2_);" d="M480,480h-96V176h96V480z M400,464h64V192h-64V464z"/>
	
		<linearGradient id="SVGID_3_" gradientUnits="userSpaceOnUse" x1="-50.875" y1="617.029" x2="-50.875" y2="556.776" gradientTransform="matrix(8 0 0 -8 455 4941)">
		<stop  offset="0" style="stop-color:#FFF33B"/>
		<stop  offset="0.04" style="stop-color:#FEE72E"/>
		<stop  offset="0.117" style="stop-color:#FED51B"/>
		<stop  offset="0.196" style="stop-color:#FDCA10"/>
		<stop  offset="0.281" style="stop-color:#FDC70C"/>
		<stop  offset="0.669" style="stop-color:#F3903F"/>
		<stop  offset="0.888" style="stop-color:#ED683C"/>
		<stop  offset="1" style="stop-color:#E93E3A"/>
	</linearGradient>
	<path style="fill:url(#SVGID_3_);" d="M96,480H0V368h96V480z M16,464h64v-80H16V464z"/>
	
		<linearGradient id="SVGID_4_" gradientUnits="userSpaceOnUse" x1="-34.875" y1="617.029" x2="-34.875" y2="556.776" gradientTransform="matrix(8 0 0 -8 455 4941)">
		<stop  offset="0" style="stop-color:#FFF33B"/>
		<stop  offset="0.04" style="stop-color:#FEE72E"/>
		<stop  offset="0.117" style="stop-color:#FED51B"/>
		<stop  offset="0.196" style="stop-color:#FDCA10"/>
		<stop  offset="0.281" style="stop-color:#FDC70C"/>
		<stop  offset="0.669" style="stop-color:#F3903F"/>
		<stop  offset="0.888" style="stop-color:#ED683C"/>
		<stop  offset="1" style="stop-color:#E93E3A"/>
	</linearGradient>
	<path style="fill:url(#SVGID_4_);" d="M224,480h-96V304h96V480z M144,464h64V320h-64V464z"/>
	
		<linearGradient id="SVGID_5_" gradientUnits="userSpaceOnUse" x1="-29.037" y1="617.029" x2="-29.037" y2="556.776" gradientTransform="matrix(8 0 0 -8 455 4941)">
		<stop  offset="0" style="stop-color:#FFF33B"/>
		<stop  offset="0.04" style="stop-color:#FEE72E"/>
		<stop  offset="0.117" style="stop-color:#FED51B"/>
		<stop  offset="0.196" style="stop-color:#FDCA10"/>
		<stop  offset="0.281" style="stop-color:#FDC70C"/>
		<stop  offset="0.669" style="stop-color:#F3903F"/>
		<stop  offset="0.888" style="stop-color:#ED683C"/>
		<stop  offset="1" style="stop-color:#E93E3A"/>
	</linearGradient>
	<path style="fill:url(#SVGID_5_);" d="M405.408,81.408L380.8,13.744L313.128,38.4l5.464,15.032l44.24-16.104
		C312.6,168.8,169.016,256,48,256c-4.418,0-8,3.582-8,8s3.582,8,8,8c145.283,0.358,275.749-88.89,328.072-224.424L390.4,86.872
		L405.408,81.408z"/>
	
		<linearGradient id="SVGID_6_" gradientUnits="userSpaceOnUse" x1="-46.3751" y1="617.029" x2="-46.3751" y2="556.776" gradientTransform="matrix(8 0 0 -8 455 4941)">
		<stop  offset="0" style="stop-color:#FFF33B"/>
		<stop  offset="0.04" style="stop-color:#FEE72E"/>
		<stop  offset="0.117" style="stop-color:#FED51B"/>
		<stop  offset="0.196" style="stop-color:#FDCA10"/>
		<stop  offset="0.281" style="stop-color:#FDC70C"/>
		<stop  offset="0.669" style="stop-color:#F3903F"/>
		<stop  offset="0.888" style="stop-color:#ED683C"/>
		<stop  offset="1" style="stop-color:#E93E3A"/>
	</linearGradient>
	<path style="fill:url(#SVGID_6_);" d="M127.752,96c17.739-13.054,21.538-38.018,8.483-55.757C128.696,29.997,116.721,23.963,104,24
		V8c0-4.418-3.582-8-8-8s-8,3.582-8,8v16H72V8c0-4.418-3.582-8-8-8s-8,3.582-8,8v16H32c-4.418,0-8,3.582-8,8s3.582,8,8,8h16v112H32
		c-4.418,0-8,3.582-8,8s3.582,8,8,8h24v16c0,4.418,3.582,8,8,8s8-3.582,8-8v-16h16v16c0,4.418,3.582,8,8,8s8-3.582,8-8v-16
		c22.025,0.063,39.931-17.74,39.995-39.765C144.031,115.515,137.997,103.54,127.752,96z M128,64c0,13.255-10.745,24-24,24H64V40h40
		C117.255,40,128,50.745,128,64z M104,152H64v-48h40c13.255,0,24,10.745,24,24S117.255,152,104,152z"/>
</g>
<g>
</g>
<g>
</g>
<g>
</g>
<g>
</g>
<g>
</g>
<g>
</g>
<g>
</g>
<g>
</g>
<g>
</g>
<g>
</g>
<g>
</g>
<g>
</g>
<g>
</g>
<g>
</g>
<g>
</g>
</svg>
