<svg height="409pt" viewBox="-61 0 409 409.6" width="409pt" xmlns="http://www.w3.org/2000/svg"><path d="m57.296875 354.988281h-50.171875l34.132812-293.546875zm0 0" fill="#00e7ff" fill-rule="evenodd"/><path d="m57.292969 361.8125h-50.167969c-1.945312 0-3.804688-.832031-5.097656-2.285156-1.296875-1.453125-1.90625-3.394532-1.679688-5.328125l34.132813-293.546875c.40625-3.519532 3.324219-6.132813 6.988281-6.039063 3.542969.113281 6.414062 2.914063 6.609375 6.453125l16.035156 293.546875c.101563 1.875-.570312 3.707031-1.859375 5.066407-1.292968 1.359374-3.082031 2.132812-4.960937 2.132812zm-42.5-13.652344h35.292969l-11.28125-206.507812zm0 0" fill="#602f75"/><path d="m280.191406 402.773438h-238.933594l-34.132812-47.785157h273.066406zm0 0" fill="#fff"/><path d="m280.191406 408.488281h-238.933594c-1.84375 0-3.578124-.894531-4.644531-2.394531l-34.136719-47.785156c-1.242187-1.742188-1.410156-4.035156-.433593-5.933594.980469-1.902344 2.941406-3.101562 5.082031-3.101562h273.066406c3.15625 0 5.710938 2.5625 5.710938 5.714843v47.785157c0 3.152343-2.554688 5.714843-5.710938 5.714843zm-235.992187-11.429687h230.285156v-36.359375h-256.257813zm0 0" fill="#602f75"/><path d="m246.0625 61.441406h34.128906v341.332032h-238.933594v-341.332032h151.8125" fill="#fff" fill-rule="evenodd"/><path d="m280.191406 409.601562h-238.933594c-3.769531 0-6.824218-3.054687-6.824218-6.828124v-341.332032c0-3.773437 3.054687-6.828125 6.824218-6.828125h151.808594c3.773438 0 6.828125 3.054688 6.828125 6.828125 0 3.773438-3.054687 6.824219-6.828125 6.824219h-144.980468v327.679687h225.28125v-327.679687h-27.304688c-3.769531 0-6.828125-3.050781-6.828125-6.824219 0-3.773437 3.058594-6.828125 6.828125-6.828125h34.128906c3.769532 0 6.828125 3.054688 6.828125 6.828125v341.332032c0 3.773437-3.058593 6.828124-6.828125 6.828124zm0 0" fill="#602f75"/><path d="m136.832031 68.265625h54.613281v327.679687h-54.613281zm0 0" fill="#ea3457" fill-rule="evenodd"/><path d="m232.40625 259.414062c0 41.472657-33.621094 75.09375-75.09375 75.09375s-75.09375-33.621093-75.09375-75.09375c0-41.472656 33.621094-75.09375 75.09375-75.09375s75.09375 33.621094 75.09375 75.09375zm0 0" fill="#602f75" fill-rule="evenodd"/><path d="m157.3125 341.332031c-45.171875 0-81.921875-36.746093-81.921875-81.917969 0-45.175781 36.75-81.921874 81.921875-81.921874 45.167969 0 81.917969 36.746093 81.917969 81.921874 0 45.171876-36.75 81.917969-81.917969 81.917969zm0-150.183593c-37.644531 0-68.265625 30.625-68.265625 68.265624 0 37.640626 30.621094 68.265626 68.265625 68.265626s68.265625-30.625 68.265625-68.265626c0-37.640624-30.621094-68.265624-68.265625-68.265624zm0 0" fill="#602f75"/><path d="m246.058594 259.414062c0 41.472657-33.621094 75.09375-75.09375 75.09375s-75.09375-33.621093-75.09375-75.09375c0-41.472656 33.621094-75.09375 75.09375-75.09375s75.09375 33.621094 75.09375 75.09375zm0 0" fill="#ffe600"/><g fill="#602f75"><path d="m170.964844 341.332031c-45.167969 0-81.917969-36.746093-81.917969-81.917969 0-45.175781 36.75-81.921874 81.917969-81.921874 45.171875 0 81.921875 36.746093 81.921875 81.921874 0 45.171876-36.75 81.917969-81.921875 81.917969zm0-150.183593c-37.644532 0-68.265625 30.625-68.265625 68.265624 0 37.640626 30.621093 68.265626 68.265625 68.265626 37.644531 0 68.265625-30.625 68.265625-68.265626 0-37.640624-30.621094-68.265624-68.265625-68.265624zm0 0"/><path d="m148.878906 221.6875c0-.71875.476563-1.191406 1.191406-1.191406h30.199219c17.195313 0 25.308594 8.589844 25.308594 21.605468 0 9.191407-4.296875 14.4375-9.425781 17.183594v.242188c5.011718 1.914062 10.859375 8.359375 10.859375 18.265625 0 16.113281-10.148438 23.875-27.933594 23.875h-29.007813c-.714843 0-1.191406-.480469-1.191406-1.195313zm31.039063 32.585938c7.160156 0 11.582031-4.292969 11.582031-10.621094 0-6.445313-4.421875-10.746094-11.582031-10.746094h-16.238281c-.476563 0-.714844.238281-.714844.710938v19.941406c0 .472656.238281.714844.714844.714844zm-16.238281 34.980468h16.953124c7.878907 0 12.292969-4.539062 12.292969-11.34375 0-6.683594-4.414062-11.226562-12.292969-11.226562h-16.953124c-.476563 0-.714844.242187-.714844.722656v21.125c0 .484375.238281.722656.714844.722656zm0 0"/><path d="m170.964844 232.105469c-3.769532 0-6.828125-3.050781-6.828125-6.824219v-13.65625c0-3.773438 3.058593-6.824219 6.828125-6.824219 3.769531 0 6.828125 3.050781 6.828125 6.824219v13.65625c0 3.773438-3.058594 6.824219-6.828125 6.824219zm0 0"/><path d="m170.964844 314.027344c-3.769532 0-6.828125-3.054688-6.828125-6.828125v-6.824219c0-3.773438 3.058593-6.828125 6.828125-6.828125 3.769531 0 6.828125 3.054687 6.828125 6.828125v6.824219c0 3.773437-3.058594 6.828125-6.828125 6.828125zm0 0"/><path d="m218.753906 122.878906c-3.773437 0-6.828125-3.050781-6.828125-6.824218v-54.613282c0-26.347656-21.4375-47.789062-47.789062-47.789062-26.347657 0-47.785157 21.441406-47.785157 47.789062v54.613282c0 3.773437-3.054687 6.824218-6.828124 6.824218-3.769532 0-6.824219-3.050781-6.824219-6.824218v-54.613282c0-33.882812 27.5625-61.441406 61.4375-61.441406 33.878906 0 61.441406 27.558594 61.441406 61.441406v54.613282c0 3.773437-3.054687 6.824218-6.824219 6.824218zm0 0"/></g></svg>