<svg height="409pt" viewBox="-61 0 409 409.6" width="409pt" xmlns="http://www.w3.org/2000/svg"><path d="m57.542969 354.988281h-50.167969l34.132812-293.546875zm0 0" fill="#ed5481"/><path d="m57.542969 362.0625h-50.167969c-2.023438 0-3.941406-.863281-5.285156-2.367188-1.34375-1.507812-1.976563-3.519531-1.742188-5.527343l34.132813-293.546875c.425781-3.648438 3.667969-6.160156 7.242187-6.253906 3.675782.113281 6.648438 3.019531 6.847656 6.6875l16.035157 293.546874c.109375 1.941407-.589844 3.839844-1.925781 5.253907-1.335938 1.40625-3.191407 2.207031-5.136719 2.207031zm-42.226563-14.148438h34.757813l-11.113281-203.347656zm0 0"/><path d="m280.441406 402.773438h-238.933594l-34.132812-47.785157h273.066406zm0 0" fill="#ed5481"/><path d="m280.441406 408.488281h-238.933594c-1.84375 0-3.578124-.894531-4.648437-2.394531l-34.132813-47.785156c-1.242187-1.742188-1.410156-4.035156-.433593-5.933594.980469-1.902344 2.941406-3.101562 5.082031-3.101562h273.066406c3.152344 0 5.710938 2.5625 5.710938 5.714843v47.785157c-.003906 3.152343-2.558594 5.714843-5.710938 5.714843zm-235.996094-11.429687h230.285157v-36.359375h-256.257813zm0 0"/><path d="m41.507812 61.441406h238.933594v341.332032h-238.933594zm0 0" fill="#ed5481" fill-rule="evenodd"/><path d="m280.441406 409.601562h-238.933594c-3.769531 0-6.828124-3.054687-6.828124-6.828124v-341.332032c0-3.773437 3.058593-6.828125 6.828124-6.828125h238.933594c3.769532 0 6.824219 3.054688 6.824219 6.828125v341.332032c0 3.773437-3.054687 6.828124-6.824219 6.828124zm-232.105468-13.65625h225.277343v-327.679687h-225.277343zm0 0"/><path d="m232.652344 259.414062c0 41.472657-33.617188 75.09375-75.089844 75.09375-41.476562 0-75.09375-33.621093-75.09375-75.09375 0-41.472656 33.617188-75.09375 75.09375-75.09375 41.472656 0 75.089844 33.621094 75.089844 75.09375zm0 0" fill-rule="evenodd"/><path d="m157.5625 341.332031c-45.171875 0-81.921875-36.746093-81.921875-81.917969 0-45.175781 36.75-81.921874 81.921875-81.921874 45.167969 0 81.917969 36.746093 81.917969 81.921874 0 45.171876-36.75 81.917969-81.917969 81.917969zm0-150.183593c-37.644531 0-68.269531 30.625-68.269531 68.265624 0 37.640626 30.625 68.265626 68.269531 68.265626 37.640625 0 68.265625-30.625 68.265625-68.265626 0-37.640624-30.625-68.265624-68.265625-68.265624zm0 0"/><path d="m246.308594 259.414062c0 41.472657-33.621094 75.09375-75.09375 75.09375s-75.09375-33.621093-75.09375-75.09375c0-41.472656 33.621094-75.09375 75.09375-75.09375s75.09375 33.621094 75.09375 75.09375zm0 0" fill="#feda38" fill-rule="evenodd"/><path d="m171.214844 341.332031c-45.171875 0-81.921875-36.746093-81.921875-81.917969 0-45.175781 36.75-81.921874 81.921875-81.921874 45.167968 0 81.917968 36.746093 81.917968 81.921874 0 45.171876-36.75 81.917969-81.917968 81.917969zm0-150.183593c-37.644532 0-68.265625 30.625-68.265625 68.265624 0 37.640626 30.621093 68.265626 68.265625 68.265626 37.644531 0 68.265625-30.625 68.265625-68.265626 0-37.640624-30.625-68.265624-68.265625-68.265624zm0 0"/><path d="m149.125 221.6875c0-.71875.480469-1.191406 1.195312-1.191406h30.199219c17.191407 0 25.304688 8.589844 25.304688 21.605468 0 9.191407-4.292969 14.4375-9.425781 17.183594v.242188c5.015624 1.914062 10.859374 8.359375 10.859374 18.265625 0 16.113281-10.144531 23.875-27.933593 23.875h-29.003907c-.714843 0-1.195312-.480469-1.195312-1.195313zm31.042969 32.585938c7.160156 0 11.578125-4.292969 11.578125-10.621094 0-6.445313-4.417969-10.746094-11.578125-10.746094h-16.242188c-.472656 0-.710937.238281-.710937.710938v19.941406c0 .472656.238281.714844.710937.714844zm-16.242188 34.980468h16.953125c7.882813 0 12.292969-4.539062 12.292969-11.34375 0-6.683594-4.410156-11.226562-12.292969-11.226562h-16.953125c-.472656 0-.710937.242187-.710937.722656v21.125c0 .484375.238281.722656.710937.722656zm0 0"/><path d="m171.214844 232.105469c-3.769532 0-6.828125-3.050781-6.828125-6.824219v-13.65625c0-3.773438 3.058593-6.824219 6.828125-6.824219 3.769531 0 6.824218 3.050781 6.824218 6.824219v13.65625c0 3.773438-3.058593 6.824219-6.824218 6.824219zm0 0"/><path d="m171.214844 314.027344c-3.769532 0-6.828125-3.054688-6.828125-6.828125v-6.824219c0-3.773438 3.058593-6.828125 6.828125-6.828125 3.769531 0 6.824218 3.054687 6.824218 6.828125v6.824219c0 3.773437-3.058593 6.828125-6.824218 6.828125zm0 0"/><path d="m219 122.878906c-3.769531 0-6.824219-3.050781-6.824219-6.824218v-54.613282c0-26.347656-21.4375-47.789062-47.789062-47.789062-26.347657 0-47.785157 21.441406-47.785157 47.789062v54.613282c0 3.773437-3.058593 6.824218-6.828124 6.824218-3.769532 0-6.824219-3.050781-6.824219-6.824218v-54.613282c0-33.882812 27.5625-61.441406 61.4375-61.441406 33.878906 0 61.441406 27.558594 61.441406 61.441406v54.613282c0 3.773437-3.058594 6.824218-6.828125 6.824218zm0 0"/></svg>